<svg xmlns="http://www.w3.org/2000/svg" width="1600" height="760" viewBox="0 0 1600 760">
  <rect width="1600" height="760" rx="34" fill="#F8FAFC"/>
  <style>.h{font:700 27px Arial;fill:#0F172A}.p{font:400 19px Arial;fill:#475569}.tag{font:700 17px Arial;fill:white}.card{stroke-width:3}.arrow{stroke:#94A3B8;stroke-width:4;fill:none;marker-end:url(#a)}</style>
  <defs><marker id="a" markerWidth="12" markerHeight="12" refX="10" refY="6" orient="auto"><path d="M0 0L12 6L0 12z" fill="#94A3B8"/></marker></defs>
  <rect x="70" y="80" width="330" height="260" rx="26" fill="#DBEAFE" stroke="#2563EB" class="card"/>
  <rect x="92" y="102" width="92" height="34" rx="17" fill="#2563EB"/><text x="138" y="126" text-anchor="middle" class="tag">RGB</text>
  <text x="100" y="185" class="h">Phân loại đoạn ngắn</text><text x="100" y="225" class="p">R(2+1)D · SlowFast</text><text x="100" y="258" class="p">VideoMAE</text><text x="100" y="304" class="p">Hình dáng + chuyển động</text>
  <rect x="450" y="80" width="330" height="260" rx="26" fill="#EDE9FE" stroke="#7C3AED" class="card"/>
  <rect x="472" y="102" width="160" height="34" rx="17" fill="#7C3AED"/><text x="552" y="126" text-anchor="middle" class="tag">THỜI GIAN</text>
  <text x="480" y="185" class="h">Định vị hành động</text><text x="480" y="225" class="p">ActionFormer · TriDet</text><text x="480" y="258" class="p">Tìm điểm đầu và cuối</text><text x="480" y="304" class="p">Xử lý video chưa cắt</text>
  <rect x="830" y="80" width="330" height="260" rx="26" fill="#CFFAFE" stroke="#0891B2" class="card"/>
  <rect x="852" y="102" width="165" height="34" rx="17" fill="#0891B2"/><text x="935" y="126" text-anchor="middle" class="tag">KHUNG XƯƠNG</text>
  <text x="860" y="185" class="h">Mô hình điểm khớp</text><text x="860" y="225" class="p">ST-GCN++ · TemPose</text><text x="860" y="258" class="p">BST (CVPRW 2026)</text><text x="860" y="304" class="p">Ít phụ thuộc màu sân</text>
  <rect x="1210" y="80" width="320" height="260" rx="26" fill="#FEF3C7" stroke="#F59E0B" class="card"/>
  <rect x="1232" y="102" width="175" height="34" rx="17" fill="#F59E0B"/><text x="1320" y="126" text-anchor="middle" class="tag">KẾT HỢP</text>
  <text x="1240" y="185" class="h">Nhiều nguồn dữ liệu</text><text x="1240" y="225" class="p">RGB + khung xương</text><text x="1240" y="258" class="p">+ sân + quỹ đạo cầu</text><text x="1240" y="304" class="p">Tín hiệu bổ sung</text>
  <rect x="420" y="470" width="760" height="170" rx="30" fill="#FFFFFF" stroke="#0F172A" stroke-width="4"/>
  <text x="800" y="525" text-anchor="middle" class="h">Lựa chọn của nhóm</text>
  <text x="800" y="570" text-anchor="middle" class="p">Tìm cú đánh → cắt người đánh → phân loại bằng R(2+1)D epoch 20</text>
  <text x="800" y="607" text-anchor="middle" class="p">TrackNet và kết hợp dữ liệu là nhánh phân tích tùy chọn</text>
  <path d="M235 340 C235 410 500 420 560 470" class="arrow"/><path d="M615 340 V470" class="arrow"/><path d="M995 340 C995 410 900 430 900 470" class="arrow"/><path d="M1370 340 C1370 410 1100 420 1040 470" class="arrow"/>
</svg>
